<svg width="30" height="30" viewBox="0 0 30 30" fill="none" xmlns="http://www.w3.org/2000/svg">
<path fill-rule="evenodd" clip-rule="evenodd" d="M14.995 0C11.434 0.00184763 7.98971 1.2631 5.27806 3.55824C2.56642 5.85337 0.764251 9.03273 0.193789 12.5278C-0.376672 16.0229 0.32177 19.6057 2.16424 22.6358C4.00672 25.6658 6.87306 27.9454 10.2508 29.0669C10.9959 29.2052 11.2766 28.7434 11.2766 28.3507C11.2766 27.958 11.2617 26.8194 11.2567 25.5746C7.08377 26.4761 6.20198 23.8137 6.20198 23.8137C5.52139 22.0848 4.53776 21.6304 4.53776 21.6304C3.17657 20.7067 4.63961 20.724 4.63961 20.724C6.14734 20.8302 6.93971 22.2626 6.93971 22.2626C8.27606 24.5423 10.4495 23.8828 11.3039 23.4975C11.4381 22.5319 11.828 21.8749 12.2578 21.5019C8.92435 21.1265 5.42203 19.8472 5.42203 14.1321C5.40137 12.6499 5.95452 11.2166 6.96703 10.1286C6.81303 9.75318 6.29885 8.23673 7.11357 6.17693C7.11357 6.17693 8.37293 5.77683 11.2394 7.70573C13.698 7.0372 16.2921 7.0372 18.7507 7.70573C21.6147 5.77683 22.8715 6.17693 22.8715 6.17693C23.6887 8.2318 23.1746 9.74824 23.0206 10.1286C24.0363 11.2168 24.5906 12.6526 24.568 14.137C24.568 19.8645 21.0583 21.1265 17.7199 21.4945C18.2564 21.9589 18.7358 22.8653 18.7358 24.2582C18.7358 26.2538 18.7184 27.8592 18.7184 28.3507C18.7184 28.7483 18.9892 29.2126 19.7492 29.0669C23.1273 27.9452 25.994 25.6652 27.8364 22.6347C29.6788 19.6042 30.3769 16.0208 29.8058 12.5254C29.2347 9.02997 27.4316 5.85058 24.7191 3.55584C22.0066 1.2611 18.5615 0.000676509 15 0H14.995Z" fill="white"/>
</svg>
