<svg width="100" height="100" viewBox="0 0 100 100" fill="none" xmlns="http://www.w3.org/2000/svg">
<path d="M12.5 20.8333C12.5 16.2312 16.2312 12.5 20.8333 12.5H79.1667C83.7687 12.5 87.5 16.2312 87.5 20.8333V79.1667C87.5 83.7687 83.7687 87.5 79.1667 87.5H20.8333C16.2312 87.5 12.5 83.7687 12.5 79.1667V20.8333Z" fill="#9F9F9F"/>
<path d="M18.75 18.75V81.25H81.25V18.75H18.75ZM49.3562 64.5833L47.7688 58.5208H39.6104L38.025 64.5833H31.6979L40.9542 34.9604H46.4271L55.7458 64.5833H49.3562ZM64.2708 64.5833H58.4937V42.5708H64.2708V64.5833ZM63.65 39.0708C63.0854 39.6542 62.325 39.9458 61.3604 39.9458C60.3958 39.9458 59.6354 39.6542 59.0708 39.0708C58.5062 38.4875 58.2271 37.7542 58.2271 36.8729C58.2271 35.9771 58.5125 35.2458 59.0812 34.675C59.65 34.1042 60.4125 33.8208 61.3604 33.8208C62.3083 33.8208 63.0687 34.1062 63.6396 34.675C64.2104 35.2437 64.4938 35.9771 64.4938 36.8729C64.4938 37.7542 64.2125 38.4875 63.65 39.0708Z" fill="white"/>
<path d="M40.9146 53.5354H46.4479L43.6812 42.9771L40.9146 53.5354Z" fill="white"/>
</svg>
