<svg width="100" height="100" viewBox="0 0 100 100" fill="none" xmlns="http://www.w3.org/2000/svg">
<path d="M12.5 20.8333C12.5 16.2312 16.2312 12.5 20.8333 12.5H79.1667C83.7687 12.5 87.5 16.2312 87.5 20.8333V79.1667C87.5 83.7687 83.7687 87.5 79.1667 87.5H20.8333C16.2312 87.5 12.5 83.7687 12.5 79.1667V20.8333Z" fill="#9F9F9F"/>
<path d="M18.75 18.75V81.25H81.25V18.75H18.75ZM39.7771 45.1979L43.7646 35.025H50.6208L43.6625 49.7146L50.7833 64.6479H43.8458L39.7771 54.2917L35.7292 64.6479H28.7917L35.9125 49.7146L28.9333 35.025H35.7896L39.7771 45.1979ZM52.2271 52.9708C52.2271 49.3625 52.8375 46.6708 54.0583 44.8937C55.2792 43.1167 57.0542 42.2292 59.3896 42.2292C61.0833 42.2292 62.4958 42.9625 63.6208 44.4271V33.4H69.4187V64.65H64.1896L63.925 62.4125C62.7458 64.1771 61.225 65.0583 59.3667 65.0583C57.0625 65.0583 55.3021 64.1771 54.0875 62.4125C52.8729 60.6479 52.2521 58.0583 52.225 54.6417V52.9708H52.2271ZM58.0062 54.4146C58.0062 56.5854 58.2354 58.1021 58.6979 58.9625C59.1604 59.8229 59.9396 60.2542 61.0375 60.2542C62.1771 60.2542 63.0375 59.7458 63.6208 58.7292V48.6792C63.0521 47.5937 62.1958 47.0521 61.0583 47.0521C60 47.0521 59.2271 47.4792 58.7396 48.3333C58.2521 49.1875 58.0062 50.7083 58.0062 52.8917V54.4146Z" fill="white"/>
</svg>
