<svg width="100" height="100" viewBox="0 0 100 100" fill="none" xmlns="http://www.w3.org/2000/svg">
<path d="M12.5 20.8333C12.5 16.2312 16.2312 12.5 20.8333 12.5H79.1667C83.7687 12.5 87.5 16.2312 87.5 20.8333V79.1667C87.5 83.7687 83.7687 87.5 79.1667 87.5H20.8333C16.2312 87.5 12.5 83.7687 12.5 79.1667V20.8333Z" fill="#9F9F9F"/>
<path d="M41.7001 39.9458H37.5293V49.1833H41.6397C42.7793 49.1833 43.6605 48.8104 44.2855 48.0646C44.9105 47.3187 45.221 46.2333 45.221 44.8083C45.221 43.3292 44.9022 42.1542 44.2647 41.2792C43.6272 40.4042 42.771 39.9604 41.7001 39.9458Z" fill="white"/>
<path d="M18.75 18.75V81.25H81.25V18.75H18.75ZM48.6771 51.6437C46.9562 53.3271 44.5687 54.1667 41.5167 54.1667H37.5292V64.5833H31.5479V34.9604H41.6396C44.5687 34.9604 46.9062 35.8708 48.6479 37.6875C50.3896 39.5042 51.2625 41.8646 51.2625 44.7667C51.2625 47.6688 50.4 49.9604 48.6771 51.6437ZM68.0875 63.2C66.6104 64.3937 64.6687 64.9896 62.2687 64.9896C60.6542 64.9896 59.2292 64.675 57.9958 64.0437C56.7625 63.4125 55.7937 62.5333 55.0958 61.4083C54.3979 60.2833 54.0479 59.0687 54.0479 57.7667H59.5208C59.55 58.7687 59.7812 59.5229 60.2229 60.025C60.6646 60.5271 61.3854 60.7771 62.3896 60.7771C63.9354 60.7771 64.7083 60.0792 64.7083 58.6812C64.7083 58.1937 64.475 57.7417 64.0062 57.3292C63.5375 56.9167 62.5 56.3583 60.8854 55.6521C58.5125 54.6896 56.8812 53.6937 55.9917 52.6604C55.1021 51.6271 54.6583 50.3479 54.6583 48.8146C54.6583 46.8875 55.3542 45.2979 56.7437 44.0438C58.1333 42.7896 59.9771 42.1625 62.2667 42.1625C64.6792 42.1625 66.6125 42.7875 68.0646 44.0333C69.5167 45.2792 70.2417 46.9562 70.2417 49.0583H64.4833C64.4833 47.2687 63.7396 46.3729 62.2458 46.3729C61.6354 46.3729 61.1354 46.5625 60.7396 46.9417C60.3438 47.3208 60.15 47.8521 60.15 48.5292C60.15 49.0167 60.3667 49.4479 60.8021 49.8208C61.2375 50.1937 62.2583 50.7271 63.875 51.4187C66.2229 52.2875 67.8792 53.2542 68.85 54.3187C69.8208 55.3833 70.3042 56.7646 70.3042 58.4583C70.3042 60.4271 69.5646 62.0062 68.0875 63.2Z" fill="white"/>
</svg>
