<svg width="100" height="100" viewBox="0 0 100 100" fill="none" xmlns="http://www.w3.org/2000/svg">
<g clip-path="url(#clip0_112_889)">
<path d="M83.893 -0.12114H16.2918C7.38202 -0.12114 0.15918 7.09026 0.15918 15.9859V83.8927C0.15918 92.7884 7.38202 99.9997 16.2918 99.9997H83.893C92.8028 99.9997 100.026 92.7884 100.026 83.8927V15.9859C100.026 7.09026 92.8028 -0.12114 83.893 -0.12114Z" fill="#9F9F9F"/>
<path d="M50.8461 42.9809C53.397 42.9809 55.3301 42.4357 56.6477 41.3195C57.9653 40.2034 58.6238 38.5779 58.6238 36.4181C58.6238 34.2856 57.9653 32.6655 56.6477 31.5579C55.3215 30.4223 53.3962 29.8545 50.8461 29.8545H41.8904V42.9816H50.8461V42.9809ZM51.3921 70.1074C54.6428 70.1074 57.0815 69.4298 58.7072 68.0722C60.3611 66.7154 61.188 64.6662 61.188 61.9246C61.188 59.2375 60.3751 57.2303 58.7493 55.9016C57.1236 54.5448 54.6717 53.8664 51.3929 53.8664H41.8912V70.109H51.3929L51.3921 70.1074ZM66.4436 47.8021C69.9189 48.799 72.6095 50.6411 74.5153 53.3266C76.4211 56.0122 77.3737 59.3084 77.3744 63.2136C77.3744 69.1954 75.3282 73.6544 71.2366 76.5899C67.1449 79.5255 60.9235 80.9929 52.5709 80.9929H25.707V18.9721H50.0074C58.7236 18.9721 65.03 20.2729 68.9251 22.8766C72.849 25.4796 74.811 29.6481 74.811 35.3806C74.811 38.3996 74.0964 40.9745 72.6673 43.107C71.2381 45.2115 69.1568 46.7677 66.4451 47.8013" fill="white"/>
</g>
<defs>
<clipPath id="clip0_112_889">
<rect width="100" height="100" fill="white"/>
</clipPath>
</defs>
</svg>
