<svg width="120" height="28" viewBox="0 0 120 28" fill="none" xmlns="http://www.w3.org/2000/svg">
<path d="M37.3583 26.8902V0.801509H38.7734V4.90528C38.9405 4.72331 39.0948 4.53003 39.2353 4.32679C40.4172 1.87472 42.91 0.32717 45.6315 0.357736C48.8579 0.261509 51.4798 1.45585 53.0205 4.32679C54.001 6.11035 54.5405 8.10258 54.5941 10.1372C54.6477 12.1717 54.2137 14.1896 53.3285 16.0223C51.893 19.2396 48.3473 20.8392 44.5515 20.2517C43.3702 20.1513 42.2328 19.7566 41.2433 19.1036C40.2538 18.4506 39.4435 17.5602 38.8866 16.5136V26.8891L37.3583 26.8902ZM38.7734 10.0302L39.0904 13.0936C39.6496 16.5804 41.7111 18.6408 44.9477 19.0279C46.4676 19.2778 48.0272 18.9929 49.3606 18.2216C50.6939 17.4504 51.7185 16.2406 52.2598 14.7985C53.5187 11.7985 53.4258 8.40226 52.0107 5.47245C51.4331 4.17971 50.4504 3.11013 49.211 2.42532C47.9717 1.74051 46.5432 1.4777 45.1413 1.6766C43.8254 1.77233 42.572 2.2755 41.5552 3.11622C40.5384 3.95694 39.8086 5.09347 39.4673 6.36792C39.166 7.57398 38.9343 8.79638 38.7734 10.0291V10.0302ZM83.4881 13.5758C83.2735 15.4127 82.399 17.1091 81.0274 18.3496C79.6557 19.5901 77.8802 20.2901 76.0311 20.3196C70.0968 20.6185 67.3119 16.6777 66.8692 12.1302C66.5614 9.66064 66.9623 7.15447 68.0251 4.90415C68.7648 3.36044 69.9767 2.0923 71.4853 1.28344C72.9939 0.474583 74.7209 0.167012 76.416 0.405282C78.0275 0.542256 79.5551 1.18256 80.7826 2.23556C82.0101 3.28857 82.8754 4.70095 83.256 6.27283C83.5575 7.70472 83.7793 9.15223 83.9205 10.6087H68.3353C68.0466 14.7317 70.2621 18.0464 73.4024 18.8457C77.3138 19.8079 80.6568 18.1132 81.8704 14.3943C82.1398 13.44 82.6311 13.3053 83.4983 13.5758H83.4881ZM68.3239 9.28868H82.2643C82.1771 4.89623 79.4421 1.70377 75.7322 1.66755C71.5436 1.59962 68.5062 4.66415 68.3239 9.28868ZM86.3692 13.6721H87.7356C87.7858 14.6787 88.1127 15.6521 88.6804 16.4849C89.248 17.3178 90.0344 17.978 90.953 18.3928C92.1064 18.9119 93.3621 19.1642 94.6265 19.1309C95.8909 19.0975 97.1315 18.7795 98.256 18.2004C98.869 17.9244 99.3825 17.4669 99.7271 16.8897C100.072 16.3124 100.231 15.6434 100.183 14.9728C100.218 14.3262 100.042 13.6856 99.6799 13.1483C99.3183 12.611 98.7914 12.2063 98.179 11.9955C96.6756 11.4362 95.0772 11.1283 93.5455 10.637C91.9516 10.1832 90.3931 9.61338 88.8824 8.93207C86.4145 7.72755 86.2617 3.03623 89.0556 1.55094C90.4863 0.743672 92.0962 0.307481 93.7387 0.28217C95.3812 0.256859 97.0038 0.643232 98.4587 1.40604C100.263 2.40226 101.261 4.41396 100.964 6.45509H99.7922C99.7922 6.39849 99.6858 6.34868 99.6858 6.29094C99.5409 2.55509 96.4006 1.38679 93.0292 1.71509C92.0104 1.8283 91.0447 2.13623 90.139 2.59132C89.5946 2.83995 89.1409 3.25164 88.8408 3.76943C88.5406 4.28723 88.4088 4.88551 88.4636 5.48151C88.4647 6.07795 88.6506 6.6594 88.9956 7.14592C89.3406 7.63244 89.8279 8.00014 90.3904 8.19849C91.8621 8.73849 93.4243 9.08491 94.947 9.5083L98.6262 10.4706C99.4625 10.7451 100.196 11.2669 100.729 11.9671C101.262 12.6674 101.57 13.5129 101.613 14.3921C101.907 16.3675 100.899 18.3091 99.1175 19.2091C95.9002 21.0294 90.6009 20.5483 88.2405 18.2468C87.0326 17.0321 86.359 15.3826 86.3726 13.6709L86.3692 13.6721ZM118.95 6.45622H117.669C117.669 6.28302 117.601 6.1166 117.582 5.98415C117.561 5.02355 117.211 4.09919 116.59 3.36604C115.969 2.6329 115.115 2.13554 114.171 1.95736C112.39 1.44653 110.49 1.53806 108.766 2.21774C108.085 2.41279 107.485 2.82321 107.056 3.38764C106.627 3.95206 106.392 4.64016 106.387 5.34906C106.362 6.04512 106.579 6.72825 107 7.28294C107.421 7.83762 108.021 8.22981 108.698 8.39321L114.556 9.8966C115.189 10.0485 115.813 10.2383 116.424 10.4649C118.291 11.1441 119.559 12.8785 119.616 14.8608C119.644 15.831 119.378 16.7871 118.853 17.6034C118.327 18.4196 117.567 19.0579 116.673 19.4343C115.313 20.0519 113.84 20.3786 112.347 20.3936C110.853 20.4086 109.374 20.1116 108.002 19.5215C106.874 19.0351 105.922 18.2148 105.274 17.171C104.627 16.1272 104.314 14.9101 104.379 13.6834H105.631C106.102 15.9532 107.661 17.8438 109.8 18.7381C111.938 19.6325 114.38 19.4128 116.325 18.154C116.909 17.8505 117.393 17.3862 117.721 16.816C118.049 16.2458 118.206 15.5936 118.175 14.9366C118.204 14.2895 118.021 13.6505 117.654 13.1167C117.287 12.5829 116.756 12.1833 116.142 11.9785C114.638 11.4192 113.04 11.1215 111.508 10.62C109.905 10.1732 108.337 9.60982 106.817 8.93434C104.408 7.74906 104.215 3.09623 106.962 1.61207C108.41 0.770924 110.051 0.319036 111.726 0.300388C113.401 0.28174 115.052 0.696967 116.519 1.50566C117.358 2.00633 118.033 2.74012 118.462 3.61768C118.891 4.49524 119.056 5.4787 118.937 6.4483L118.95 6.45622ZM35.0296 19.8487C34.5252 20.0394 33.9683 20.0389 33.4642 19.8472C32.9602 19.6556 32.5437 19.286 32.2934 18.8083L27.3122 11.9196L26.59 10.9574L20.8096 18.8185C20.574 19.2757 20.18 19.6314 19.7013 19.8193C19.2226 20.0073 18.6918 20.0145 18.2081 19.8396L25.6549 9.84906L18.7266 0.821886C19.7545 0.450566 20.9002 0.853585 21.4719 1.78415L26.6341 8.75774L31.827 1.81132C32.0643 1.36198 32.4585 1.01555 32.9347 0.837923C33.4108 0.660293 33.9356 0.663852 34.4092 0.847925L31.7205 4.41509L28.0787 9.15509C27.9776 9.24536 27.8967 9.35595 27.8413 9.47964C27.786 9.60333 27.7573 9.73732 27.7573 9.87283C27.7573 10.0083 27.786 10.1423 27.8413 10.266C27.8967 10.3897 27.9776 10.5003 28.0787 10.5906L35.0149 19.8487H35.0296ZM66.6485 0.725661V2.08415C65.6741 2.02024 64.6971 2.16135 63.7806 2.49837C62.8641 2.83539 62.0284 3.36084 61.3276 4.04079C60.6267 4.72075 60.0762 5.5401 59.7116 6.44597C59.347 7.35185 59.1764 8.32411 59.2107 9.3C59.2107 12.4728 59.2107 15.6457 59.2107 18.8185V19.8974H57.833V0.810565H59.1915V4.72189C60.8579 1.86906 63.43 0.810567 66.6575 0.733585L66.6485 0.725661ZM0.376776 9.72453L0.983568 6.72792C2.64998 0.802642 9.44244 -1.66302 14.1156 2.00717C16.8519 4.15585 17.5345 7.2 17.4009 10.6302H1.98545C1.7364 16.757 6.15715 20.4566 11.8119 18.5683C13.6753 17.8891 15.0779 16.3404 15.5398 14.4158C15.8387 13.4536 16.3322 13.2883 17.2356 13.5668C17.085 14.7398 16.6703 15.8633 16.0229 16.8529C15.3754 17.8426 14.512 18.6725 13.4975 19.2804C11.8216 20.1969 9.89868 20.5601 8.00386 20.3179C6.10904 20.0758 4.33931 19.2407 2.94772 17.9321C1.57112 16.3845 0.740172 14.4283 0.578286 12.3623C0.578286 12.0226 0.465078 11.7057 0.385833 11.4C0.378286 10.8287 0.374512 10.2702 0.374512 9.72453H0.376776ZM2.0047 9.31019H15.9451C15.8579 4.86906 13.0549 1.71849 9.31678 1.68906C5.15527 1.63245 2.17791 4.71396 1.99451 9.29094L2.0047 9.31019Z" fill="#9F9F9F"/>
</svg>
