<svg width="80" height="80" viewBox="0 0 80 80" fill="none" xmlns="http://www.w3.org/2000/svg">
<path d="M43.3335 28.3333H30.0002C23.5568 28.3333 18.3335 23.11 18.3335 16.6667C18.3335 10.2233 23.5568 5 30.0002 5H43.3335V28.3333Z" fill="#9F9F9F"/>
<path d="M41.6668 51.6667H30.0002C23.5568 51.6667 18.3335 46.4433 18.3335 40C18.3335 33.5567 23.5568 28.3333 30.0002 28.3333H41.6668V51.6667Z" fill="#9F9F9F"/>
<path d="M30.0002 75C23.5568 75 18.3335 69.7767 18.3335 63.3333C18.3335 56.89 23.5568 51.6667 30.0002 51.6667H41.6668V63.3333C41.6668 69.7767 36.4435 75 30.0002 75Z" fill="#9F9F9F"/>
<path d="M53.3332 28.3333H41.6665V5H53.3332C59.7765 5 64.9998 10.2233 64.9998 16.6667C64.9998 23.11 59.7765 28.3333 53.3332 28.3333Z" fill="#9F9F9F"/>
<path d="M53.3332 51.6667C59.7765 51.6667 64.9998 46.4433 64.9998 40C64.9998 33.5567 59.7765 28.3333 53.3332 28.3333C46.8898 28.3333 41.6665 33.5567 41.6665 40C41.6665 46.4433 46.8898 51.6667 53.3332 51.6667Z" fill="#9F9F9F"/>
</svg>
