<svg width="120" height="120" viewBox="0 0 120 120" fill="none" xmlns="http://www.w3.org/2000/svg">
<path d="M102.5 12.5H17.5L25 97.5L60 107.5L95 97.5L102.5 12.5Z" fill="#9F9F9F"/>
<path d="M60 20V99.75L88 91.75L94.25 20H60Z" fill="#9F9F9F"/>
<path d="M60 62.5V52.5H81.5L79.75 81.25L60 87.75V77.25L70.25 73.75L71 62.5H60V62.5ZM82.25 42.5L83 32.5H60V42.5H82.25Z" fill="white"/>
<path d="M60 77.25V87.75L40.25 81.25L39.25 67.5H49.25L49.75 73.75L60 77.25ZM47.75 42.5H60V32.5H37.25L39 62.5H60V52.5H48.5L47.75 42.5Z" fill="white"/>
</svg>
