<svg width="120" height="120" viewBox="0 0 120 120" fill="none" xmlns="http://www.w3.org/2000/svg">
<path d="M15 105V15H105V105H15Z" fill="#9F9F9F"/>
<path d="M73.845 82.3675C75.575 85.1775 77.455 87.87 81.4375 87.87C84.7825 87.87 86.5375 86.2075 86.5375 83.9075C86.5375 81.155 84.7225 80.1775 81.0425 78.575L79.025 77.715C73.2025 75.245 69.33 72.15 69.33 65.6125C69.33 59.5875 73.9425 55.0025 81.15 55.0025C86.2825 55.0025 89.97 56.78 92.63 61.435L86.345 65.4525C84.9625 62.9825 83.4675 62.01 81.15 62.01C78.785 62.01 77.2875 63.5025 77.2875 65.4525C77.2875 67.8625 78.7875 68.8375 82.25 70.33L84.2675 71.19C91.13 74.1125 95 77.0975 95 83.8075C95 91.0375 89.29 95 81.625 95C74.1275 95 69.87 91.2375 67.5 86.58L73.845 82.3675ZM44.88 82.5725C46.145 84.8375 48.0675 86.58 50.8325 86.58C53.4775 86.58 55 85.535 55 81.4725V55H63.3325V82.7525C63.3325 91.17 58.45 95 51.32 95C44.8775 95 40.2275 90.635 38.3325 86.58L44.88 82.5725Z" fill="white"/>
</svg>
