<svg width="100" height="100" viewBox="0 0 100 100" fill="none" xmlns="http://www.w3.org/2000/svg">
<path d="M54.006 94C54.004 94 54.002 94 54 94C50.564 94 46.934 93.652 43.208 92.966C42.692 92.868 42.204 92.716 41.714 92.56L41.326 92.436C41.304 92.434 41.182 92.396 41.062 92.358C40.362 92.14 39.814 91.96 39.258 91.768C39.222 91.754 39.008 91.676 38.972 91.662C38.554 91.51 38.052 91.322 37.568 91.134C37.544 91.128 37.432 91.084 37.322 91.038C36.646 90.768 36.12 90.548 35.596 90.32C35.594 90.318 35.408 90.232 35.404 90.23C34.83 89.972 34.368 89.76 33.918 89.534C33.874 89.514 33.556 89.356 33.514 89.332C33.064 89.116 32.768 88.956 32.488 88.8C32.296 88.706 32.068 88.592 31.838 88.464C31.462 88.262 31.056 88.03 30.658 87.796L30.312 87.602C29.674 87.218 29.148 86.894 28.622 86.554L27.188 85.596C27.148 85.57 27.09 85.526 27.028 85.478C26.896 85.39 26.77 85.298 26.642 85.204C26.266 84.934 25.936 84.698 25.618 84.458L23.702 82.95C23.33 82.642 22.958 82.324 22.588 82.002C22.566 81.98 22.29 81.74 22.268 81.718C21.974 81.47 21.59 81.108 21.208 80.748L20.9 80.46C20.898 80.458 20.752 80.32 20.75 80.318C20.44 80.026 20.14 79.716 19.842 79.41L19.49 79.064C19.108 78.666 18.75 78.282 18.4 77.896C18.342 77.84 18.288 77.778 18.24 77.722C17.868 77.308 17.502 76.888 17.156 76.466L16.994 76.276C16.986 76.266 16.854 76.112 16.846 76.1L15.706 74.66C15.448 74.332 15.158 73.944 14.87 73.544L14.746 73.368C14.734 73.35 14.72 73.334 14.708 73.318C14.36 72.85 14.044 72.372 13.73 71.888C13.672 71.808 13.58 71.668 13.49 71.522L13.174 71.02C13.04 70.812 12.908 70.602 12.784 70.394C12.746 70.346 12.654 70.19 12.562 70.038L11.918 68.94C11.752 68.642 11.656 68.464 11.562 68.272C11.522 68.222 11.434 68.064 11.368 67.918C11.326 67.864 11.208 67.634 11.104 67.406L11.034 67.278C10.914 67.052 10.796 66.824 10.69 66.588C5.07997 55.284 3.49997 36.796 11.668 24.9C11.988 24.394 14.844 19.942 18.664 16.512C19.428 15.826 20.586 15.83 21.346 16.52C22.106 17.212 22.22 18.366 21.608 19.19C15.548 27.38 17.578 49.76 25.358 60.48C25.648 60.88 25.934 61.268 26.23 61.652C26.358 61.812 26.474 61.96 26.576 62.11L27.418 63.14C27.878 63.686 28.222 64.088 28.58 64.484C28.97 64.914 29.31 65.276 29.656 65.63L31.07 67.034C31.556 67.49 31.956 67.862 32.358 68.226C32.412 68.266 32.456 68.3 32.5 68.34C32.856 68.652 33.206 68.956 33.576 69.256L34.01 69.612C34.24 69.802 34.492 69.996 34.742 70.192C35.022 70.402 35.196 70.536 35.362 70.668C35.638 70.87 35.97 71.112 36.306 71.35L36.504 71.492C36.996 71.834 37.332 72.062 37.672 72.282C37.866 72.416 37.968 72.49 38.082 72.56C38.588 72.886 39.088 73.19 39.584 73.49C39.746 73.576 39.922 73.678 40.086 73.79L41.716 74.666C42.076 74.858 42.356 75.008 42.64 75.144C42.67 75.156 42.994 75.314 43.022 75.328C43.432 75.53 43.838 75.718 44.258 75.916L44.53 76.03C45 76.238 45.482 76.446 45.968 76.64L46.406 76.81C46.788 76.96 47.226 77.13 47.668 77.282C47.668 77.282 47.894 77.364 47.896 77.364C48.392 77.536 48.898 77.706 49.41 77.862L50.154 78.09C50.544 78.21 50.928 78.326 51.318 78.416C67.188 82.064 81.052 78.466 88.41 68.79C89.012 68 90.108 67.774 90.974 68.252C91.844 68.734 92.224 69.784 91.872 70.712C91.78 70.946 82.658 93.998 54.006 94Z" fill="#9F9F9F"/>
<path d="M65.158 66C62.648 66 60 65.768 57.272 65.31C56.714 65.222 56.212 65.05 55.77 64.9L54.896 64.61C54.516 64.484 54.136 64.35 53.762 64.216C53.744 64.21 53.546 64.136 53.528 64.128L53.298 64.044C52.784 63.846 52.362 63.668 51.946 63.488L51.31 63.21C50.9 63.02 50.488 62.83 50.082 62.626C50.052 62.612 49.912 62.546 49.882 62.528L49.272 62.21C48.998 62.064 48.884 62.002 48.77 61.932C48.522 61.81 48.144 61.592 47.782 61.374C47.226 61.052 46.836 60.81 46.438 60.548L46.224 60.406L46.03 60.278C45.84 60.152 45.654 60.032 45.474 59.904C45.414 59.868 45.356 59.832 45.3 59.79C44.766 59.406 44.24 59.014 43.726 58.606L43.546 58.468C42.884 57.948 42.382 57.528 41.892 57.092C41.85 57.056 41.808 57.02 41.77 56.98C41.77 56.978 41.768 56.978 41.766 56.976C41.33 56.586 40.908 56.184 40.49 55.778C40.482 55.77 40.336 55.624 40.328 55.616L40.132 55.416C39.726 55.008 39.314 54.586 38.93 54.15C37.822 53.15 36.952 51.868 36.18 50.734L35.91 50.34C34.99 49.016 34.136 47.568 33.38 46.052C28.544 36.488 28.952 25.156 34.422 17.196C34.442 17.168 34.462 17.142 34.482 17.114C34.612 16.944 37.706 12.916 40.732 10.448C41.48 9.83599 42.558 9.84799 43.294 10.476C44.03 11.102 44.212 12.164 43.728 13C39.992 19.454 38.756 26.538 40.422 31.952C42.208 37.848 46.026 43.354 51.176 47.468L51.396 47.648C51.958 48.084 52.432 48.446 52.918 48.788C53.13 48.932 53.356 49.08 53.588 49.232C53.606 49.244 53.762 49.35 53.78 49.36L53.966 49.482C54.236 49.664 54.526 49.84 54.814 50.014L55.006 50.132L55.202 50.242C55.55 50.45 55.786 50.59 56.04 50.722L57.178 51.316C57.59 51.516 58.056 51.738 58.526 51.944L58.792 52.058C59.182 52.234 59.5 52.358 59.822 52.486L60.38 52.698C60.77 52.844 61.114 52.964 61.458 53.074C61.624 53.132 61.714 53.166 61.814 53.194C62.414 53.388 62.9 53.532 63.398 53.66C74.172 56.496 84.748 53.044 90.344 44.87C90.898 44.06 91.96 43.77 92.85 44.192C93.738 44.612 94.188 45.616 93.914 46.56C93.858 46.75 88.118 65.506 66.038 65.99C65.75 65.996 65.456 66 65.158 66Z" fill="#9F9F9F"/>
<path d="M74.682 42C74.438 42 74.19 41.996 73.94 41.99C72.482 41.944 70.94 41.762 69.356 41.448C69.036 41.384 68.7199 41.284 68.406 41.18L68.182 41.106C68.142 41.094 67.8479 41 67.8099 40.986C67.466 40.864 67.266 40.794 67.066 40.716C61.04 38.456 55.972 33.606 53.542 27.758C52.494 25.238 51.974 22.622 52 19.978C52.036 16.454 53.07 13.066 54.996 10.178C55.016 10.146 55.038 10.116 55.062 10.084C55.436 9.586 57.392 7.058 59.11 6.208C59.912 5.81 60.882 5.994 61.484 6.658C62.086 7.322 62.17 8.304 61.694 9.062C58.128 14.742 60.518 24.578 66.61 29.304C67.644 30.104 68.782 30.818 69.994 31.42C70.606 31.714 71.256 31.99 71.914 32.23C72.416 32.416 72.9779 32.606 73.4919 32.734C80.4199 34.456 85.4179 33.146 88.346 28.844C88.3479 28.842 88.3479 28.84 88.3499 28.84C88.9739 27.928 90.2139 27.696 91.1279 28.316C92.0399 28.938 92.2759 30.182 91.6559 31.094C91.6519 31.098 91.65 31.104 91.646 31.108C91.56 31.234 91.454 31.436 91.316 31.69C89.898 34.268 85.65 42 74.682 42Z" fill="#9F9F9F"/>
</svg>
