<svg width="100" height="100" viewBox="0 0 100 100" fill="none" xmlns="http://www.w3.org/2000/svg">
<path d="M60.4165 12.5H32.7998C30.7936 12.5 29.1665 14.1271 29.1665 16.1333V31.2563H60.4165V12.5Z" fill="#9F9F9F"/>
<path d="M29.1665 68.8625V83.8667C29.1665 85.8729 30.7936 87.5 32.7978 87.5H60.4165V68.8625H29.1665Z" fill="#9F9F9F"/>
<path d="M29.1665 31.2563H60.4165V50.0104H29.1665V31.2563Z" fill="#9F9F9F"/>
<path d="M29.1665 50.0104H60.4165V68.8646H29.1665V50.0104Z" fill="#9F9F9F"/>
<path d="M88.0332 12.5H60.4165V31.2563H91.6665V16.1333C91.6665 14.1271 90.0394 12.5 88.0332 12.5Z" fill="#9F9F9F"/>
<path d="M60.4165 68.8625V87.5H88.0352C90.0394 87.5 91.6665 85.8729 91.6665 83.8688V68.8646H60.4165V68.8625Z" fill="#9F9F9F"/>
<path d="M60.4165 31.2563H91.6665V50.0104H60.4165V31.2563Z" fill="#9F9F9F"/>
<path d="M60.4165 50.0104H91.6665V68.8646H60.4165V50.0104Z" fill="#9F9F9F"/>
<path d="M46.4981 70.8333H11.8356C9.90225 70.8333 8.3335 69.2646 8.3335 67.3313V32.6688C8.3335 30.7354 9.90225 29.1667 11.8356 29.1667H46.4981C48.4314 29.1667 50.0002 30.7354 50.0002 32.6688V67.3313C50.0002 69.2646 48.4314 70.8333 46.4981 70.8333Z" fill="#9F9F9F"/>
<path d="M20.4311 39.5833H25.402L29.4353 47.4042L33.6978 39.5833H38.3415L31.9436 50L38.4874 60.4167H33.5895L29.1936 52.2292L24.8165 60.4167H19.8457L26.4978 49.9625L20.4311 39.5833Z" fill="white"/>
</svg>
