<svg width="100" height="100" viewBox="0 0 100 100" fill="none" xmlns="http://www.w3.org/2000/svg">
<path d="M87.5 36.0417C87.5 78.75 50 91.6667 50 91.6667C50 91.6667 12.5 78.75 12.5 36.0417C12.5 30.8333 12.9167 26.4583 13.3333 22.9167C13.9583 17.7083 17.5 13.5417 22.5 12.2917C28.9583 10.4167 39.1667 8.33333 50 8.33333C60.8333 8.33333 71.0417 10.4167 77.7083 12.2917C82.7083 13.5417 86.25 17.9167 86.875 22.9167C87.0833 26.4583 87.5 31.0417 87.5 36.0417Z" fill="white"/>
<path d="M50 14.5833C60.2083 14.5833 69.7917 16.6667 76.0417 18.3333C78.5417 18.9583 80.2083 21.0417 80.625 23.75C81.0417 27.7083 81.25 31.875 81.25 36.0417C81.25 68.5417 57.2917 81.6667 50 84.7917C42.7083 81.4583 18.75 68.3333 18.75 36.0417C18.75 31.875 18.9583 27.7083 19.375 23.75C19.5833 21.0417 21.4583 18.9583 23.9583 18.3333C30.2083 16.6667 39.7917 14.5833 50 14.5833ZM50 8.33333C39.1667 8.33333 28.9583 10.4167 22.2917 12.2917C17.5 13.5417 13.75 17.9167 13.3333 22.9167C12.9167 26.4583 12.5 31.0417 12.5 36.0417C12.5 78.75 50 91.6667 50 91.6667C50 91.6667 87.5 78.75 87.5 36.0417C87.5 30.8333 87.0833 26.4583 86.6667 22.9167C86.0417 17.7083 82.5 13.5417 77.5 12.2917C71.0417 10.4167 60.8333 8.33333 50 8.33333Z" fill="#9F9F9F"/>
<path d="M47.9165 58.3333H52.0832V75H47.9165V58.3333Z" fill="#9F9F9F"/>
<path d="M50 20.8333C50 20.8333 37.5 31.25 37.5 47.9167C37.5 58.75 44.375 65.625 47.9167 68.75L50 62.5L52.0833 68.75C55.625 65.625 62.5 58.75 62.5 47.9167C62.5 31.25 50 20.8333 50 20.8333Z" fill="#9F9F9F"/>
<path d="M50 20.8333C50 20.8333 37.5 31.25 37.5 47.9167C37.5 58.75 44.375 65.625 47.9167 68.75L50 62.5V20.8333Z" fill="#9F9F9F"/>
</svg>
