<svg width="100" height="100" viewBox="0 0 100 100" fill="none" xmlns="http://www.w3.org/2000/svg">
<g clip-path="url(#clip0_112_938)">
<path d="M0.00416667 73.0021H4.00417V58.2417L9.56042 70.8604C10.2458 72.4333 11.1833 72.9896 13.0229 72.9896C14.8625 72.9896 15.7625 72.4333 16.4479 70.8604L22.0042 58.5646V73.0021H26.0042V57.8813C26.0042 56.4292 25.4271 55.725 24.2354 55.3625C21.3875 54.4667 19.475 55.2396 18.6104 57.1792L12.9125 70.0125L7.39375 57.1792C6.56458 55.2417 4.61875 54.4667 1.76875 55.3625C0.577083 55.725 0 56.4271 0 57.8792V73H0.00416667V73.0021Z" fill="#9F9F9F"/>
<path d="M28.002 61.0021H32.002V69.45C31.9707 69.8667 32.1353 70.9729 34.0645 71.0021C35.0478 71.0187 39.9415 71.0021 40.002 71.0021V61.0021H44.002C44.0186 61.0021 44.002 73.4354 44.002 73.4875C44.0228 76.5542 40.1936 76.95 38.4332 77.0021H28.004V75.0021C28.0249 75.0021 37.977 75.0042 38.0061 75.0021C40.2728 74.7625 40.004 73.5146 40.004 73.1354V73.0021H33.729C30.2499 72.9708 28.0311 71.4375 28.0061 69.6896C28.002 69.5271 28.0811 61.0771 28.002 61.0021Z" fill="#9F9F9F"/>
<path d="M46.0019 73.0021H56.0164C57.3289 73.0021 58.6039 72.7271 59.6164 72.2521C61.3039 71.4771 61.9998 70.4292 61.9998 69.0521V66.2021C61.9998 63.1271 58.1873 63.0021 55.9998 63.0021H51.9998C50.4269 63.0021 50.1873 62.0521 49.9998 61.0021V59.0021C50.1873 58.2021 50.5373 57.1271 51.9227 57.0021C53.5331 57.0021 61.9977 57.0021 61.9977 57.0021V55.0021H52.4852C50.9123 55.0021 45.9977 55.1896 45.9977 59.0021V61.475C45.9977 63.225 47.5352 64.65 50.8727 65C51.2477 65.025 51.6227 65.05 51.9956 65.05C51.9956 65.05 55.8831 64.975 55.9956 65C58.2456 65 57.9956 66.75 57.9956 67V69C57.9956 69.275 57.9331 71 55.9727 71C55.8227 71 45.9956 71 45.9956 71V73.0021H46.0019Z" fill="#9F9F9F"/>
<path d="M84 68.9167C84 71.3313 85.3646 72.6854 88.9833 72.9562C89.3208 72.9792 89.6604 73 90 73H100V71H90.7604C88.6958 71 88 70.1333 88 68.8937V55H84V68.9167Z" fill="#9F9F9F"/>
<path d="M63.9668 69.0021V59.0021C63.9668 56.8771 65.0085 55.4104 67.9585 55.0021H69.3585H76.5397H77.6335C80.5835 55.4104 81.9668 56.875 81.9668 59.0021V68.9646C81.9668 70.6875 81.5189 71.6125 80.0585 72.2125L83.1585 75H78.6585L76.4293 73H73.8105L69.3605 73.025C68.7168 73.025 68.0376 72.9354 67.2918 72.7312C65.0543 72.1208 63.9668 70.9458 63.9668 69.0021ZM67.9668 69.0021C68.171 69.975 68.9522 71.0021 70.3418 71.0021H74.2251L72.0001 69.0021H76.5314L77.6126 70.0063C77.6126 70.0063 78.0001 69.6896 78.0001 69.0021C78.0001 68.3146 77.9668 59.0021 77.9668 59.0021C77.7626 58.0979 76.846 57.0021 75.4918 57.0021H70.3439C68.7835 57.0021 67.9689 58.1438 67.9689 59.2063L67.9668 69.0021Z" fill="#9F9F9F"/>
<path d="M96.2477 52.8938C94.0998 52.8354 92.4602 53.0354 91.0581 53.625C90.6602 53.7938 90.0248 53.7979 89.9581 54.2979C90.1769 54.5271 90.2102 54.8708 90.3852 55.1521C90.7185 55.6938 91.2852 56.4208 91.7894 56.8C92.3415 57.2167 92.9102 57.6625 93.4998 58.0229C94.5498 58.6625 95.7227 59.0292 96.7352 59.6708C97.331 60.0479 97.9227 60.5271 98.5061 60.9521C98.7936 61.1646 98.9852 61.4917 99.3602 61.625C99.3602 61.6042 99.3602 61.5854 99.3602 61.5646C99.1644 61.3146 99.1123 60.9708 98.9331 60.7083C98.6685 60.4438 98.404 60.1792 98.1394 59.9146C97.3644 58.8854 96.3769 57.9792 95.3311 57.2292C94.4956 56.6292 92.6269 55.8188 92.2769 54.8479C92.2561 54.8271 92.2373 54.8083 92.2144 54.7854C92.8061 54.7188 93.4998 54.5042 94.0456 54.3583C94.9644 54.1125 95.7831 54.1771 96.7311 53.9313C97.1581 53.8083 97.5852 53.6875 98.0123 53.5646C98.0123 53.4833 98.0123 53.4021 98.0123 53.3208C97.5331 52.8292 97.1894 52.1792 96.6686 51.7333C95.2998 50.5688 93.8081 49.4063 92.2727 48.4354C91.4206 47.8979 90.3665 47.5479 89.4644 47.0917C89.1602 46.9375 88.6269 46.8583 88.4269 46.6042C87.9519 46 87.6956 45.2313 87.329 44.5292C86.5623 43.0542 85.8081 41.4417 85.1311 39.8896C84.6665 38.8313 84.3644 37.7854 83.7873 36.8354C81.0144 32.2771 78.029 29.525 73.4081 26.8208C72.4248 26.2458 71.2394 26.0188 69.9873 25.7208C69.3144 25.6813 68.6436 25.6396 67.9706 25.5979C67.5602 25.425 67.1352 24.925 66.7477 24.6813C65.2165 23.7125 61.2873 21.6083 60.154 24.375C59.4373 26.1208 61.2248 27.825 61.8644 28.7104C62.3123 29.3313 62.8873 30.0271 63.2081 30.7271C63.4186 31.1854 63.4561 31.6458 63.6352 32.1313C64.079 33.3271 64.7811 34.6896 65.3561 35.7958C65.6456 36.3563 65.9665 36.9438 66.3331 37.4438C66.5581 37.75 66.9436 37.8854 67.0061 38.3604C66.629 38.8875 66.6081 39.7063 66.3956 40.3771C65.4415 43.3875 65.8019 47.1271 67.1894 49.3521C67.6144 50.0354 68.6186 51.5021 69.9977 50.9396C71.204 50.4479 70.9352 48.925 71.279 47.5813C71.3561 47.2771 71.3081 47.0542 71.4623 46.85C71.4623 46.8708 71.4623 46.8896 71.4623 46.9125C71.829 47.6438 72.1936 48.3792 72.5623 49.1104C73.3769 50.4208 74.8206 51.7896 76.0415 52.7146C76.6748 53.1938 77.1748 54.0229 77.9956 54.3021C77.9956 54.2813 77.9956 54.2625 77.9956 54.2396C77.9748 54.2396 77.9561 54.2396 77.9331 54.2396C77.7748 53.9917 77.5248 53.8896 77.3227 53.6896C76.8456 53.2208 76.3123 52.6396 75.9186 52.1021C74.8061 50.5917 73.8227 48.9375 72.9269 47.2167C72.4998 46.3938 72.1269 45.4896 71.7665 44.6521C71.6269 44.3292 71.629 43.8417 71.3394 43.675C70.9436 44.2875 70.3644 44.7833 70.0581 45.5063C69.5706 46.6625 69.5061 48.075 69.3269 49.5354C69.2186 49.5729 69.2665 49.5479 69.204 49.5958C68.354 49.3896 68.054 48.5167 67.7373 47.7646C66.9373 45.8646 66.7894 42.8063 67.4936 40.6208C67.6748 40.0542 68.4977 38.2729 68.1665 37.75C68.0081 37.2271 67.4831 36.925 67.1915 36.5271C66.8269 36.0354 66.4665 35.3854 66.2144 34.8167C65.5602 33.3354 64.9394 31.6125 64.2498 30.1146C63.9206 29.3979 63.3644 28.675 62.9061 28.0396C62.3998 27.3354 61.8311 26.8167 61.4394 25.9646C61.2998 25.6625 61.1102 25.1771 61.3165 24.8646C61.3831 24.6542 61.4748 24.5667 61.6831 24.4979C62.0373 24.2229 63.0227 24.5875 63.3936 24.7417C64.3727 25.1479 65.1894 25.5354 66.0186 26.0854C66.4165 26.35 66.8186 26.8604 67.2998 27.0021C67.4831 27.0021 67.6665 27.0021 67.8498 27.0021C68.7102 27.2 69.6727 27.0646 70.4748 27.3083C71.8956 27.7396 73.1665 28.4104 74.3206 29.1396C77.8415 31.3625 80.7186 34.525 82.6873 38.3C83.004 38.9083 83.1415 39.4875 83.4186 40.1313C83.9811 41.4313 84.6915 42.7688 85.2498 44.0396C85.8081 45.3083 86.354 46.5875 87.1436 47.6438C87.5602 48.1979 89.1644 48.4958 89.8915 48.8042C90.4019 49.0208 91.2394 49.2438 91.7227 49.5354C92.6477 50.0938 93.5436 50.7583 94.4081 51.3667C94.8498 51.6729 96.1811 52.3417 96.2477 52.8938Z" fill="#9F9F9F"/>
<path d="M68.954 29.6313C68.5061 29.6229 68.1894 29.6792 67.854 29.7542C67.854 29.775 67.854 29.7938 67.854 29.8167C67.8748 29.8167 67.8936 29.8167 67.9165 29.8167C68.1311 30.2542 68.5061 30.5396 68.7707 30.9167C68.9748 31.3438 69.1769 31.7708 69.3811 32.1979C69.4019 32.1771 69.4207 32.1583 69.4415 32.1375C69.8186 31.8708 69.9936 31.4458 69.9915 30.7938C69.8394 30.6333 69.8165 30.4333 69.6853 30.2438C69.5103 29.9875 69.1728 29.8438 68.954 29.6313Z" fill="#9F9F9F"/>
</g>
<defs>
<clipPath id="clip0_112_938">
<rect width="100" height="100" fill="white"/>
</clipPath>
</defs>
</svg>
