<svg width="100" height="100" viewBox="0 0 100 100" fill="none" xmlns="http://www.w3.org/2000/svg">
<path d="M50.0144 94.6229C48.8186 94.6229 47.6332 94.3104 46.5853 93.7063L35.6686 87.2417C34.0373 86.3292 34.8332 86.0063 35.3707 85.8208C37.5457 85.0604 37.9853 84.8875 40.3061 83.5688C40.5498 83.4292 40.8686 83.4792 41.1186 83.6271L49.5061 88.6042C49.8082 88.7687 50.2394 88.7687 50.5186 88.6042L83.2207 69.7271C83.5228 69.5542 83.7207 69.2042 83.7207 68.8438V31.1083C83.7207 30.7313 83.5248 30.3958 83.2144 30.2083L50.5269 11.3458C50.2248 11.1667 49.8228 11.1667 49.5207 11.3458L16.8373 30.2063C16.5207 30.3854 16.3186 30.7375 16.3186 31.0979V68.8354C16.3186 69.1958 16.5144 69.5396 16.8269 69.7104L25.7832 74.8833C30.6457 77.3146 33.6165 74.45 33.6165 71.5688V34.325C33.6165 33.7938 34.0332 33.3833 34.5665 33.3833H38.7082C39.2248 33.3833 39.6498 33.7917 39.6498 34.325V71.5875C39.6498 78.0708 36.1144 81.7958 29.9665 81.7958C28.0748 81.7958 26.5853 81.7958 22.4269 79.75L13.8478 74.8063C11.7269 73.5771 10.4165 71.2833 10.4165 68.8375V31.1C10.4165 28.6438 11.7269 26.3521 13.8457 25.1396L46.5832 6.25417C48.654 5.08333 51.404 5.08333 53.4603 6.25417L86.1561 25.1479C88.2644 26.3667 89.5832 28.6521 89.5832 31.1083V68.8458C89.5832 71.2938 88.2644 73.5771 86.154 74.8063L53.4582 93.6896C52.4103 94.2958 51.2228 94.6063 50.0123 94.6063" fill="#9F9F9F"/>
<path d="M60.1164 68.6187C45.8081 68.6187 42.8081 62.05 42.8081 56.5417C42.8081 56.0187 43.231 55.6 43.756 55.6H47.981C48.4477 55.6 48.8414 55.9396 48.9144 56.4C49.5519 60.7042 51.4519 62.875 60.1039 62.875C66.9956 62.875 69.9269 61.3187 69.9269 57.6625C69.9269 55.5583 69.0914 53.9958 58.3852 52.9479C49.4289 52.0646 43.8956 50.0917 43.8956 42.9292C43.8956 36.3313 49.4623 32.4021 58.7852 32.4021C69.256 32.4021 74.4456 36.0375 75.0998 43.8458C75.1248 44.1167 75.0269 44.3771 74.8456 44.575C74.6664 44.7625 74.4123 44.8771 74.1498 44.8771H69.9019C69.4602 44.8771 69.0748 44.5667 68.9852 44.1396C67.9623 39.6125 65.4894 38.1646 58.7685 38.1646C51.2456 38.1646 50.3706 40.7833 50.3706 42.7479C50.3706 45.1292 51.4019 45.825 61.5519 47.1688C71.6039 48.5021 76.3769 50.3854 76.3769 57.45C76.3769 64.5708 70.4331 68.6562 60.0706 68.6562" fill="#9F9F9F"/>
</svg>
