<svg width="100" height="100" viewBox="0 0 100 100" fill="none" xmlns="http://www.w3.org/2000/svg">
<path d="M83.3335 85.4167H16.6668C12.071 85.4167 8.3335 81.6792 8.3335 77.0833V22.9167C8.3335 18.3208 12.071 14.5833 16.6668 14.5833H83.3335C87.9293 14.5833 91.6668 18.3208 91.6668 22.9167V77.0833C91.6668 81.6792 87.9293 85.4167 83.3335 85.4167Z" fill="#9F9F9F"/>
<path d="M70.8333 27.0417H29.2083C24.625 27.0417 20.875 30.7708 20.875 35.375V62.5C20.875 66.375 23.5208 69.625 27.0833 70.5417V66.0833C25.8542 65.3542 25.0417 64.0208 25.0417 62.5V35.375C25.0417 33.0833 26.9167 31.2083 29.2083 31.2083H70.8333C73.125 31.2083 75 33.0833 75 35.375V62.5C75 64.0417 74.1667 65.375 72.9167 66.1042V70.5625C76.5208 69.6458 79.1667 66.375 79.1667 62.5V35.375C79.1667 30.7708 75.4375 27.0417 70.8333 27.0417Z" fill="white"/>
<path d="M34.375 58.3333C36.1 58.3333 37.5 59.7333 37.5 61.4583V71.875C37.5 73.6 36.1 75 34.375 75C32.65 75 31.25 73.6 31.25 71.875V61.4583C31.25 59.7333 32.65 58.3333 34.375 58.3333Z" fill="white"/>
<path d="M44.7915 45.8333C46.5165 45.8333 47.9165 47.2333 47.9165 48.9583V71.875C47.9165 73.6 46.5165 75 44.7915 75C43.0665 75 41.6665 73.6 41.6665 71.875V48.9583C41.6665 47.2333 43.0665 45.8333 44.7915 45.8333Z" fill="white"/>
<path d="M55.2085 52.0833C56.9335 52.0833 58.3335 53.4833 58.3335 55.2083V71.875C58.3335 73.6 56.9335 75 55.2085 75C53.4835 75 52.0835 73.6 52.0835 71.875V55.2083C52.0835 53.4833 53.4835 52.0833 55.2085 52.0833Z" fill="white"/>
<path d="M65.625 37.5C67.35 37.5 68.75 38.9 68.75 40.625V71.875C68.75 73.6 67.35 75 65.625 75C63.9 75 62.5 73.6 62.5 71.875V40.625C62.5 38.9 63.9 37.5 65.625 37.5Z" fill="white"/>
</svg>
