<svg width="100" height="100" viewBox="0 0 100 100" fill="none" xmlns="http://www.w3.org/2000/svg">
<path d="M50.0003 58.8471C54.932 58.8471 58.93 54.8491 58.93 49.9173C58.93 44.9856 54.932 40.9876 50.0003 40.9876C45.0685 40.9876 41.0706 44.9856 41.0706 49.9173C41.0706 54.8491 45.0685 58.8471 50.0003 58.8471Z" fill="#9F9F9F"/>
<path fill-rule="evenodd" clip-rule="evenodd" d="M50.0005 31.7613C61.9899 31.7613 73.1277 33.4817 81.5255 36.3728C91.6438 39.8563 97.8649 45.1363 97.8649 49.9173C97.8649 54.8996 91.2718 60.5089 80.4061 64.1089C72.1914 66.8305 61.3815 68.2513 50.0005 68.2513C38.3319 68.2513 27.2824 66.9178 18.9751 64.079C8.46491 60.4866 2.13452 54.8047 2.13452 49.9173C2.13452 45.1751 8.07438 39.9358 18.0504 36.4577C26.4796 33.5189 37.8924 31.7613 49.9989 31.7613H50.0005Z" stroke="#9F9F9F" stroke-width="2.73408"/>
<path fill-rule="evenodd" clip-rule="evenodd" d="M34.1951 40.8917C40.1848 30.5057 47.239 21.7168 53.9389 15.8862C62.0112 8.86129 69.6931 6.11012 73.8347 8.49835C78.1508 10.9873 79.7161 19.5012 77.4066 30.712C75.6622 39.188 71.4909 49.2618 65.8053 59.1208C59.9758 69.2291 53.3008 78.1348 46.6922 83.9113C38.3297 91.2214 30.245 93.8668 26.0112 91.4252C21.903 89.0578 20.332 81.2934 22.3028 70.9137C23.968 62.1436 28.1469 51.3791 34.1932 40.8915L34.1951 40.8917Z" stroke="#9F9F9F" stroke-width="2.73408"/>
<path fill-rule="evenodd" clip-rule="evenodd" d="M34.2102 59.1474C28.2036 48.7732 24.1141 38.2703 22.407 29.554C20.3522 19.052 21.8051 11.0224 25.9428 8.62722C30.2547 6.13095 38.4126 9.02665 46.9718 16.6265C53.4431 22.3724 60.0882 31.0155 65.7905 40.8653C71.6367 50.9638 76.0183 61.1947 77.7229 69.8049C79.8797 80.7008 78.134 89.0261 73.9042 91.4747C69.8001 93.8506 62.2897 91.3351 54.2815 84.4437C47.5152 78.6213 40.2761 69.6246 34.2102 59.1472V59.1474Z" stroke="#9F9F9F" stroke-width="2.73408"/>
</svg>
