<svg width="120" height="120" viewBox="0 0 120 120" fill="none" xmlns="http://www.w3.org/2000/svg">
<path d="M99.6673 64.89C95.8223 64.91 92.4923 65.8325 89.7023 67.21C88.6823 65.1725 87.6473 63.38 87.4748 62.0475C87.2723 60.4925 87.0373 59.5625 87.2823 57.71C87.5273 55.8575 88.5998 53.2325 88.5848 53.035C88.5698 52.8375 88.3448 51.895 86.1273 51.8775C83.9098 51.8625 82.0123 52.305 81.7898 52.89C81.5673 53.475 81.1398 54.7925 80.8748 56.1675C80.4873 58.1775 76.4473 65.35 74.1548 69.1C73.4048 67.635 72.7673 66.345 72.6348 65.325C72.4324 63.77 72.1973 62.84 72.4423 60.9875C72.6873 59.135 73.7598 56.51 73.7448 56.3125C73.7298 56.115 73.5048 55.1725 71.2873 55.155C69.0698 55.14 67.1723 55.5825 66.9498 56.1675C66.7273 56.7525 66.4873 58.12 66.0348 59.445C65.5798 60.7675 60.2123 72.73 58.8048 75.8325C58.0873 77.4125 57.4648 78.6825 57.0248 79.5475C57.0223 79.545 57.0223 79.5425 57.0223 79.5425C57.0223 79.5425 56.9948 79.6 56.9498 79.6975C56.5723 80.435 56.3498 80.8425 56.3498 80.8425C56.3498 80.8425 56.3523 80.8475 56.3573 80.8575C56.0573 81.4 55.7373 81.9025 55.5798 81.9025C55.4698 81.9025 55.2473 80.46 55.6273 78.48C56.4273 74.33 58.3448 67.86 58.3273 67.635C58.3173 67.52 58.6848 66.3925 57.0748 65.8025C55.5098 65.23 54.9523 66.185 54.8098 66.1875C54.6723 66.19 54.5698 66.525 54.5698 66.525C54.5698 66.525 56.3123 59.2475 51.2448 59.2475C48.0748 59.2475 43.6848 62.715 41.5223 65.8575C40.1573 66.6025 37.2348 68.1975 34.1373 69.9C32.9473 70.555 31.7323 71.2225 30.5798 71.8575C30.5023 71.77 30.4223 71.685 30.3423 71.5975C24.1948 65.04 12.8348 60.4025 13.3148 51.585C13.4898 48.38 14.6048 39.94 35.1473 29.705C51.9748 21.32 65.4473 23.6275 67.7748 28.74C71.0998 36.0475 60.5748 49.625 43.0998 51.585C36.4423 52.3325 32.9348 49.75 32.0623 48.79C31.1448 47.7775 31.0073 47.7325 30.6648 47.9225C30.1073 48.2325 30.4598 49.125 30.6648 49.6575C31.1873 51.015 33.3273 53.4225 36.9773 54.6225C40.1898 55.6775 48.0073 56.255 57.4598 52.5975C68.0498 48.5025 76.3173 37.1075 73.8873 27.585C71.4174 17.9 55.3573 14.715 40.1573 20.115C31.0998 23.33 21.3073 28.375 14.2648 34.96C5.89234 42.79 4.55734 49.6075 5.10734 52.455C7.06234 62.575 21.0098 69.165 26.5948 74.0475C26.3198 74.2 26.0598 74.3425 25.8248 74.4725C23.0248 75.8575 12.3923 81.4225 9.73234 87.3C6.71484 93.9675 10.2123 98.7525 12.5273 99.3975C19.6998 101.392 27.0598 97.8025 31.0173 91.9025C34.9723 86.005 34.4898 78.3225 32.6748 74.8175C32.6523 74.775 32.6273 74.7325 32.6048 74.6875C33.3273 74.26 34.0648 73.825 34.7948 73.395C36.2198 72.5575 37.6198 71.7775 38.8323 71.1175C38.1523 72.9775 37.6548 75.21 37.3973 78.4325C37.0923 82.2175 38.6448 87.11 40.6748 89.035C41.5698 89.8825 42.6448 89.9025 43.3248 89.9025C45.6873 89.9025 46.7648 87.9375 47.9523 85.6125C49.4073 82.7625 50.6998 79.4425 50.6998 79.4425C50.6998 79.4425 49.0798 88.4075 53.4948 88.4075C55.1048 88.4075 56.7223 86.32 57.4448 85.2575C57.4473 85.27 57.4473 85.275 57.4473 85.275C57.4473 85.275 57.4898 85.205 57.5723 85.0675C57.7398 84.8125 57.8348 84.65 57.8348 84.65C57.8348 84.65 57.8373 84.6325 57.8423 84.6025C58.4898 83.48 59.9248 80.92 62.0748 76.6975C64.8548 71.2425 67.5198 64.4075 67.5198 64.4075C67.5198 64.4075 67.7673 66.0775 68.5798 68.8425C69.0573 70.4675 70.0723 72.265 70.8748 73.99C70.2299 74.885 69.8348 75.3975 69.8348 75.3975C69.8348 75.3975 69.8373 75.4075 69.8448 75.425C69.3298 76.11 68.7523 76.8475 68.1474 77.5675C65.9523 80.18 63.3398 83.165 62.9898 84.025C62.5773 85.04 62.6748 85.785 63.4723 86.3875C64.0548 86.825 65.0898 86.895 66.1723 86.8225C68.1448 86.69 69.5298 86.2 70.2149 85.9025C71.2823 85.525 72.5248 84.9325 73.6898 84.075C75.8423 82.4925 77.1398 80.23 77.0148 77.23C76.9448 75.5775 76.4198 73.94 75.7523 72.395C75.9473 72.115 76.1423 71.83 76.3398 71.545C79.7323 66.585 82.3648 61.135 82.3648 61.135C82.3648 61.135 82.6123 62.805 83.4248 65.57C83.8348 66.9675 84.6473 68.495 85.3773 69.99C82.1873 72.5825 80.2098 75.595 79.5223 77.57C78.2523 81.225 79.2473 82.88 81.1124 83.2575C81.9573 83.4275 83.1523 83.04 84.0498 82.66C85.1673 82.29 86.5098 81.6725 87.7648 80.75C89.9173 79.1675 91.9873 76.9525 91.8623 73.955C91.8048 72.59 91.4348 71.235 90.9324 69.935C93.6373 68.8075 97.1373 68.1825 101.597 68.7025C111.165 69.82 113.04 75.7925 112.682 78.2925C112.322 80.7925 110.317 82.1675 109.645 82.5825C108.975 82.9975 108.77 83.1425 108.825 83.45C108.907 83.8975 109.217 83.8825 109.79 83.785C110.577 83.6525 114.812 81.7525 114.995 77.1375C115.222 71.2725 109.61 64.8375 99.6673 64.89ZM25.9248 89.75C22.7548 93.2075 18.3298 94.5125 16.4298 93.4125C14.3798 92.225 15.1923 87.135 19.0798 83.465C21.4498 81.23 24.5098 79.17 26.5398 77.9025C27.0023 77.625 27.6798 77.2175 28.5048 76.7225C28.6423 76.645 28.7198 76.6025 28.7198 76.6025L28.7173 76.5975C28.8773 76.5025 29.0398 76.405 29.2073 76.3025C30.6248 81.525 29.2523 86.1225 25.9248 89.75ZM49.0123 74.0575C47.9098 76.7475 45.5998 83.6325 44.1923 83.2625C42.9848 82.945 42.2498 77.7125 43.9523 72.5625C44.8073 69.97 46.6373 66.8725 47.7123 65.67C49.4423 63.735 51.3473 63.1025 51.8098 63.8875C52.3973 64.8875 49.7048 72.37 49.0123 74.0575ZM68.0848 83.1575C67.6173 83.4025 67.1873 83.555 66.9898 83.4375C66.8423 83.35 67.1823 83.0275 67.1823 83.0275C67.1823 83.0275 69.5673 80.46 70.5073 79.2925C71.0548 78.6125 71.6873 77.805 72.3773 76.905C72.3823 76.995 72.3848 77.085 72.3848 77.1725C72.3798 80.2475 69.4098 82.3225 68.0848 83.1575ZM82.7774 79.8075C82.4273 79.56 82.4873 78.7575 83.6348 76.255C84.0848 75.2725 85.1148 73.62 86.8998 72.04C87.1073 72.69 87.2323 73.3125 87.2298 73.8925C87.2073 77.7625 84.4473 79.2075 82.7774 79.8075Z" fill="#9F9F9F"/>
</svg>
